#N canvas 6 244 1009 638 10;
#X obj 98 -26 adc~;
#X obj 275 378 dac~;
#X obj 583 20 mrpeach/udpreceive 1234;
#X text 219 -28 SimpleFuzz for rasp-guitar. Params:;
#X msg 583 -17 status;
#X obj 927 -14 loadbang;
#X msg 928 14 \; pd dsp 1;
#X obj 98 230 *~ 47;
#X obj 279 341 clip~ -0.38 0.81;
#X obj 582 51 mrpeach/unpackOSC;
#X text 114 444 Credits: inspired by GuitarExtended-SimpleFuzz \, https://guitarextended.wordpress.com/.
Thanks Pierre Masset!;
#X obj 293 181 * 100;
#X text 219 -12 /volume: amplification level \; /xySlider x: lower
clip \; /xySlider y: higher clip;
#X obj 418 244 unpack 0 0;
#X obj 353 296 * -1;
#X obj 243 264 hsl 128 15 0 5 0 0 empty empty clip_- -2 -8 0 10 -262144
-1 -1 0 1;
#X obj 535 272 hsl 128 15 0 5 0 0 empty empty clip_+ -2 -8 0 10 -262144
-1 -1 0 1;
#X floatatom 241 287 5 0 0 0 - - -, f 5;
#X floatatom 532 292 5 0 0 0 - - -, f 5;
#X obj 133 52 vsl 15 128 0 127 0 0 empty empty volume 0 -9 0 10 -262144
-1 -1 0 1;
#X floatatom 145 188 5 0 0 0 - - -, f 5;
#X obj 778 41 tgl 15 0 empty empty log_Debug 17 7 0 10 -4034 -1 -1
0 1;
#X obj 647 83 spigot;
#X obj 647 114 print received osc;
#X obj 580 139 route /volume /xySlider /compass /tilts /multiSlider
;
#X obj 798 214 print unused;
#X connect 0 0 7 0;
#X connect 2 0 9 0;
#X connect 4 0 2 0;
#X connect 5 0 6 0;
#X connect 7 0 8 0;
#X connect 8 0 1 0;
#X connect 8 0 1 1;
#X connect 9 0 22 0;
#X connect 9 0 24 0;
#X connect 11 0 7 1;
#X connect 13 0 14 0;
#X connect 13 1 8 2;
#X connect 14 0 8 1;
#X connect 15 0 14 0;
#X connect 15 0 17 0;
#X connect 16 0 8 2;
#X connect 16 0 18 0;
#X connect 19 0 20 0;
#X connect 19 0 7 1;
#X connect 21 0 22 1;
#X connect 22 0 23 0;
#X connect 24 0 11 0;
#X connect 24 1 13 0;
#X connect 24 2 25 0;
#X connect 24 3 13 0;
#X connect 24 4 25 0;
