#N canvas 272 52 719 851 10;
#X obj 530 -36 receive fromGUI;
#X obj 137 -44 receive fromSystem;
#X obj 532 323 send toNetwork;
#X obj 987 171 send toGUI;
#X obj 985 -44 loadbang;
#X msg 1037 -3 list /effect None SimpleFuzz WhaAuto;
#X obj 148 333 send toNetwork;
#X obj 135 162 list trim;
#X obj 135 118 spigot;
#X obj 291 17 list trim;
#X text 532 344 messages: /effect /xySlider /multiSlider /backingTrack
/speed /volume;
#X msg 788 -1 list /volume 1;
#X msg 897 -2 list speed 1;
#X text 1044 -46 populate menu and init UI on startup;
#X obj 291 63 route /sockToggle /effect /track;
#X msg 985 40 list /track None Straight Kick&Snare Funk Blues Ballade
;
#X obj 319 164 send toGUI;
#X obj 135 208 route /tilts /compass /shake;
#X msg 267 260 list /shake 1;
#X msg 23 260 list /tilts \$1 \$2;
#X msg 146 259 list /compass \$1;
#X text 148 353 messages: /tilts /compass /shake;
#X msg 263 113 list /effectLabel \$2;
#X msg 400 113 list /trackLabel \$2;
#X text 389 164 update choices labels;
#X connect 0 0 2 0;
#X connect 0 0 9 0;
#X connect 1 0 8 0;
#X connect 4 0 5 0;
#X connect 4 0 15 0;
#X connect 4 0 11 0;
#X connect 4 0 12 0;
#X connect 5 0 3 0;
#X connect 7 0 17 0;
#X connect 8 0 7 0;
#X connect 9 0 14 0;
#X connect 11 0 3 0;
#X connect 12 0 3 0;
#X connect 14 0 8 1;
#X connect 14 1 22 0;
#X connect 14 2 23 0;
#X connect 15 0 3 0;
#X connect 17 0 19 0;
#X connect 17 1 20 0;
#X connect 17 2 18 0;
#X connect 18 0 6 0;
#X connect 19 0 6 0;
#X connect 20 0 6 0;
#X connect 22 0 16 0;
#X connect 23 0 16 0;
